<?xml version="1.0" encoding="UTF-8" standalone="no"?>
<!-- Created with Inkscape (http://www.inkscape.org/) -->

<svg
   id="svg2"
   sodipodi:modified="TRUE"
   viewBox="0 0 30 30"
   inkscape:export-ydpi="51.200001"
   inkscape:export-xdpi="51.200001"
   version="1.0"
   inkscape:output_extension="org.inkscape.output.svg.inkscape"
   sodipodi:docname="icon.svg"
   inkscape:export-filename="/Users/zmy/Downloads/icn.png"
   inkscape:version="1.1.2 (b8e25be8, 2022-02-05)"
   sodipodi:version="0.32"
   xmlns:inkscape="http://www.inkscape.org/namespaces/inkscape"
   xmlns:sodipodi="http://sodipodi.sourceforge.net/DTD/sodipodi-0.dtd"
   xmlns="http://www.w3.org/2000/svg"
   xmlns:svg="http://www.w3.org/2000/svg"
   xmlns:rdf="http://www.w3.org/1999/02/22-rdf-syntax-ns#"
   xmlns:cc="http://creativecommons.org/ns#"
   xmlns:dc="http://purl.org/dc/elements/1.1/">
  <title
     id="title1218">Monitor Preview Icon</title>
  <defs
     id="defs4">
    <linearGradient
       id="linearGradient3210"
       y2="27"
       gradientUnits="userSpaceOnUse"
       x2="30"
       gradientTransform="matrix(.93333 0 0 .92593 1 1)"
       inkscape:collect="always">
      <stop
         id="stop3206"
         style="stop-color:#b0b1ae"
         offset="0" />
      <stop
         id="stop3208"
         style="stop-color:#5f5f5d"
         offset="1" />
    </linearGradient>
    <linearGradient
       id="linearGradient3219"
       y2="25"
       gradientUnits="userSpaceOnUse"
       x2="28"
       y1="2"
       x1="2"
       inkscape:collect="always">
      <stop
         id="stop3214"
         style="stop-color:#eeeeec"
         offset="0" />
      <stop
         id="stop3217"
         style="stop-color:#8a8a7c"
         offset="1" />
    </linearGradient>
  </defs>
  <sodipodi:namedview
     id="base"
     inkscape:zoom="5.2460337"
     height="30px"
     borderopacity="1.0"
     inkscape:current-layer="layer1"
     inkscape:cx="-12.676243"
     inkscape:cy="16.869888"
     inkscape:grid-points="true"
     showgrid="false"
     width="30px"
     inkscape:snap-global="true"
     showguides="true"
     bordercolor="#666666"
     inkscape:window-x="0"
     inkscape:window-y="25"
     inkscape:window-width="1440"
     inkscape:pageopacity="0.0"
     inkscape:pageshadow="2"
     pagecolor="#ffffff"
     gridtolerance="10000"
     inkscape:document-units="px"
     inkscape:window-height="753"
     inkscape:pagecheckerboard="0"
     inkscape:window-maximized="0">
    <inkscape:grid
       id="grid2395"
       type="xygrid" />
  </sodipodi:namedview>
  <g
     id="layer1"
     inkscape:label="Calque 1"
     inkscape:groupmode="layer">
    <g
       id="g3203">
      <rect
         id="rect3465"
         style="fill:#427bc3"
         ry="0"
         height="0"
         width="6"
         y="12.5"
         x="16" />
      <path
         id="rect2420"
         style="fill:url(#linearGradient3210)"
         d="m4.9839 1h20.032c2.207 0 3.984 1.7768 3.984 3.9839v17.032c0 2.207-1.777 3.984-3.984 3.984h-20.032c-2.2072 0-3.984-1.777-3.984-3.984v-17.032c0-2.2072 1.7768-3.984 3.9839-3.984z" />
      <path
         id="rect2422"
         style="fill:url(#linearGradient3219)"
         d="m4.9441 2h20.112c1.631 0 2.944 1.3131 2.944 2.9441v17.112c0 1.631-1.313 2.944-2.944 2.944h-20.112c-1.6309 0-2.944-1.313-2.944-2.944v-17.112c0-1.6309 1.3131-2.944 2.9441-2.944z" />
      <path
         id="rect2424"
         style="fill:#3465a4"
         d="m5 5h20v17h-20v-17z" />
      <path
         id="rect3231"
         style="fill:#555753"
         d="m13 26h4v2h-4v-2z" />
      <path
         id="rect3233"
         style="fill:#888a85"
         d="m5.5 28h19c0.277 0 0.5 0.223 0.5 0.5s-0.223 0.5-0.5 0.5h-19c-0.277 0-0.5-0.223-0.5-0.5s0.223-0.5 0.5-0.5z" />
      <path
         id="path2423"
         style="fill-rule:evenodd;fill:#8ae234"
         d="m16.381 5.777c-0.29 0.0762-0.502 0.3119-0.563 0.5837-0.002 0.0106 0.002 0.0256 0 0.0364l-1.875 7.7699-0.312-0.875c-0.003-0.011 0.003-0.027 0-0.037h-0.063c-0.122-0.329-0.453-0.541-0.812-0.511-0.365 0.031-0.672 0.281-0.719 0.62-0.002 0.012 0.001 0.025 0 0.037l-0.313 1.386-0.625-4.706v-0.036-0.073c0.001-0.0122 0.001-0.0243 0-0.0365-0.055-0.3696-0.379-0.6397-0.781-0.6566-0.4016-0.0169-0.7293 0.2549-0.8124 0.5837-0.0028 0.0242-0.0028 0.0487 0 0.0729v0.0365 0.073l-1.125 5.07h-3.6875v1.46h4.3438c0.3831 0 0.7059-0.236 0.7812-0.584l0.3439-1.423 0.625 4.706v0.036 0.073c-0.001 0.013-0.001 0.025 0 0.037 0.056 0.37 0.379 0.64 0.781 0.656 0.402 0.017 0.698-0.254 0.781-0.583 0.003-0.024 0.003-0.049 0-0.073v-0.037-0.073l0.625-2.881 0.313 0.802c0.005 0.017 0.056 0.02 0.062 0.037 0.123 0.329 0.454 0.541 0.813 0.51 0.365-0.03 0.672-0.28 0.719-0.62 0.001-0.012-0.001-0.024 0-0.036l1.375-5.727 0.812 9.01v0.036 0.11c-0.001 0.012-0.001 0.024 0 0.036 0.03 0.357 0.341 0.625 0.719 0.657 0.377 0.032 0.772-0.187 0.875-0.547l1.094-4.122h5.812v-1.46h-6.437c-0.363-0.008-0.678 0.189-0.782 0.511v0.037l-0.093 0.364-0.844-9.4475v-0.0365-0.0729c0.001-0.0122 0.001-0.0243 0-0.0365-0.02-0.2456-0.206-0.4351-0.375-0.5472-0.17-0.1121-0.381-0.1685-0.625-0.1094-0.013-0.0007-0.018-0.0007-0.031 0z" />
      <path
         id="rect3245"
         style="fill:#555753"
         d="m4 4v19h22v-19h-22zm1 1h20v17h-20v-17z" />
    </g>
    <g
       id="g4288"
       transform="matrix(-0.30838571,1.7489422,-1.7489422,-0.30838571,944.26269,-426.01133)"
       style="fill:none;fill-opacity:1;stroke:#ac0b0b;stroke-width:1.5;stroke-miterlimit:4;stroke-dasharray:none;stroke-opacity:1">
      <circle
         r="3.625"
         cy="472.13062"
         cx="335.03351"
         id="path4284"
         style="color:#000000;clip-rule:nonzero;display:inline;overflow:visible;visibility:visible;opacity:1;isolation:auto;mix-blend-mode:normal;color-interpolation:sRGB;color-interpolation-filters:linearRGB;solid-color:#000000;solid-opacity:1;fill:none;fill-opacity:1;fill-rule:nonzero;stroke:#ac0b0b;stroke-width:1.5;stroke-linecap:round;stroke-linejoin:round;stroke-miterlimit:4;stroke-dasharray:none;stroke-dashoffset:0;stroke-opacity:1;color-rendering:auto;image-rendering:auto;shape-rendering:auto;text-rendering:auto;enable-background:accumulate" />
      <path
         sodipodi:nodetypes="cc"
         inkscape:connector-curvature="0"
         id="path4286"
         d="m 337.9085,474.44313 2.90967,2.26732"
         style="color:#000000;clip-rule:nonzero;display:inline;overflow:visible;visibility:visible;opacity:1;isolation:auto;mix-blend-mode:normal;color-interpolation:sRGB;color-interpolation-filters:linearRGB;solid-color:#000000;solid-opacity:1;fill:none;fill-opacity:1;fill-rule:nonzero;stroke:#ac0b0b;stroke-width:1.5;stroke-linecap:round;stroke-linejoin:round;stroke-miterlimit:4;stroke-dasharray:none;stroke-dashoffset:0;stroke-opacity:1;color-rendering:auto;image-rendering:auto;shape-rendering:auto;text-rendering:auto;enable-background:accumulate" />
    </g>
  </g>
  <metadata
     id="metadata843">
    <rdf:RDF>
      <cc:Work>
        <dc:format>image/svg+xml</dc:format>
        <dc:type
           rdf:resource="http://purl.org/dc/dcmitype/StillImage" />
        <cc:license
           rdf:resource="http://creativecommons.org/publicdomain/zero/1.0/" />
        <dc:publisher>
          <cc:Agent
             rdf:about="http://openclipart.org/">
            <dc:title>Openclipart</dc:title>
          </cc:Agent>
        </dc:publisher>
        <dc:date>2021-04-15T19:30:00</dc:date>
        <dc:description />
        <dc:source>https://openclipart.org/detail/22678/icon_monitoring-by-jean_victor_balin</dc:source>
        <dc:subject>
          <rdf:Bag>
            <rdf:li>computer</rdf:li>
            <rdf:li>icon</rdf:li>
            <rdf:li>monitor</rdf:li>
            <rdf:li>perf</rdf:li>
            <rdf:li>statistics</rdf:li>
            <rdf:li>system</rdf:li>
          </rdf:Bag>
        </dc:subject>
        <dc:title>Monitor Preview Icon</dc:title>
        <dc:creator>
          <cc:Agent>
            <dc:title>Maiyun Zhan</dc:title>
          </cc:Agent>
        </dc:creator>
        <dc:contributor>
          <cc:Agent>
            <dc:title>OpenClipart#13242,32938</dc:title>
          </cc:Agent>
        </dc:contributor>
      </cc:Work>
      <cc:License
         rdf:about="http://creativecommons.org/licenses/publicdomain/">
        <cc:permits
           rdf:resource="http://creativecommons.org/ns#Reproduction" />
        <cc:permits
           rdf:resource="http://creativecommons.org/ns#Distribution" />
        <cc:permits
           rdf:resource="http://creativecommons.org/ns#DerivativeWorks" />
      </cc:License>
    </rdf:RDF>
  </metadata>
</svg>
